<svg width="136" height="78" viewBox="0 0 136 78" fill="none" xmlns="http://www.w3.org/2000/svg">
<path d="M132 74V78H136V74H132ZM87 70C84.7909 70 83 71.7909 83 74C83 76.2091 84.7909 78 87 78V70ZM1.17157 27.1716C-0.390524 28.7337 -0.390524 31.2663 1.17157 32.8284L26.6274 58.2843C28.1895 59.8464 30.7222 59.8464 32.2843 58.2843C33.8464 56.7222 33.8464 54.1895 32.2843 52.6274L9.65685 30L32.2843 7.37258C33.8464 5.81049 33.8464 3.27783 32.2843 1.71573C30.7222 0.153632 28.1895 0.153632 26.6274 1.71573L1.17157 27.1716ZM132 30H136V26H132V30ZM132 70H87V78H132V70ZM4 34H132V26H4V34ZM128 30V74H136V30H128Z" fill="#FFC71B"/>
</svg>
