<svg width="362" height="501" viewBox="0 0 362 501" fill="none" xmlns="http://www.w3.org/2000/svg">
<path d="M3.16794 402.506C0.715303 408.306 -0.0047618 414.671 1.14453 420.857L6.92491 451.195C8.69306 460.492 17.177 471.034 25.8992 474.723L82.6991 498.743C91.3917 502.419 104.865 501.167 112.77 495.955L138.503 478.956C142.938 476.012 148.247 469.645 150.323 464.736L165.709 428.682L18.3439 366.363L3.16794 402.506ZM253.147 14.9815C159.117 -24.4434 59.2873 23.0701 23.4034 107.925C6.11769 148.8 5.50054 192.468 18.4202 231.546C26.3067 255.337 34.7364 301.669 30.8972 336.114C30.8287 336.356 30.7824 336.626 30.7076 336.883L178.257 399.28C178.389 399.047 178.544 398.84 178.676 398.608C200.711 371.857 239.829 345.633 262.392 334.719C299.121 317.571 329.962 286.749 347.606 245.026C385.188 156.156 343.063 52.6836 253.147 14.9815ZM216.31 103.631C175.665 86.4428 128.648 105.527 111.818 145.325C108.044 154.25 98.6084 158.077 90.5033 154.649C82.3983 151.222 78.5712 141.786 81.9987 133.681C106.054 76.7983 171.553 50.9267 228.427 74.9779C236.572 78.4225 240.375 87.8034 236.931 95.9462C233.488 104.089 224.415 107.059 216.31 103.631Z" fill="#FFC71B"/>
</svg>
