<svg width="31" height="20" viewBox="0 0 31 20" fill="none" xmlns="http://www.w3.org/2000/svg">
<path fill-rule="evenodd" clip-rule="evenodd" d="M0.753845 2C0.753845 0.895431 1.64928 0 2.75385 0H28.9077C30.0123 0 30.9077 0.895431 30.9077 2C30.9077 3.10457 30.0123 4 28.9077 4H2.75385C1.64928 4 0.753845 3.10457 0.753845 2ZM0.753845 10C0.753845 8.89543 1.64928 8 2.75385 8H28.9077C30.0123 8 30.9077 8.89543 30.9077 10C30.9077 11.1046 30.0123 12 28.9077 12H2.75385C1.64928 12 0.753845 11.1046 0.753845 10ZM2.75385 16C1.64928 16 0.753845 16.8954 0.753845 18C0.753845 19.1046 1.64928 20 2.75385 20H28.9077C30.0123 20 30.9077 19.1046 30.9077 18C30.9077 16.8954 30.0123 16 28.9077 16H2.75385Z" fill="#44BF44"/>
</svg>
