<svg width="45" height="46" viewBox="0 0 45 46" fill="none" xmlns="http://www.w3.org/2000/svg">
<path d="M22.505 11.0805C16.1202 11.0805 10.9702 16.2871 10.9702 22.742C10.9702 29.1969 16.1202 34.4035 22.505 34.4035C28.8898 34.4035 34.0399 29.1969 34.0399 22.742C34.0399 16.2871 28.8898 11.0805 22.505 11.0805ZM22.505 30.3235C18.379 30.3235 15.0059 26.9235 15.0059 22.742C15.0059 18.5605 18.3689 15.1605 22.505 15.1605C26.6411 15.1605 30.0042 18.5605 30.0042 22.742C30.0042 26.9235 26.6311 30.3235 22.505 30.3235ZM37.2022 10.6035C37.2022 12.1157 35.9975 13.3235 34.5117 13.3235C33.0159 13.3235 31.8212 12.1055 31.8212 10.6035C31.8212 9.10136 33.0259 7.88345 34.5117 7.88345C35.9975 7.88345 37.2022 9.10136 37.2022 10.6035ZM44.8419 13.3641C44.6712 9.72047 43.848 6.493 41.2078 3.83389C38.5775 1.17478 35.3851 0.342538 31.7811 0.159851C28.0666 -0.0532837 16.9334 -0.0532837 13.2189 0.159851C9.62493 0.332389 6.43252 1.16463 3.79225 3.82374C1.15198 6.48285 0.338818 9.71032 0.158115 13.3539C-0.052705 17.1091 -0.052705 28.3647 0.158115 32.1199C0.328779 35.7635 1.15198 38.991 3.79225 41.6501C6.43252 44.3092 9.61489 45.1414 13.2189 45.3241C16.9334 45.5373 28.0666 45.5373 31.7811 45.3241C35.3851 45.1516 38.5775 44.3193 41.2078 41.6501C43.838 38.991 44.6612 35.7635 44.8419 32.1199C45.0527 28.3647 45.0527 17.1193 44.8419 13.3641ZM40.0432 36.1492C39.2602 38.1384 37.7443 39.671 35.7666 40.4728C32.8051 41.6602 25.7777 41.3862 22.505 41.3862C19.2323 41.3862 12.1949 41.6501 9.24345 40.4728C7.27579 39.6811 5.7599 38.1486 4.96682 36.1492C3.79225 33.1551 4.0633 26.0507 4.0633 22.742C4.0633 19.4333 3.80229 12.3187 4.96682 9.3348C5.74986 7.34554 7.26576 5.813 9.24345 5.0112C12.205 3.82374 19.2323 4.09777 22.505 4.09777C25.7777 4.09777 32.8151 3.83389 35.7666 5.0112C37.7342 5.80285 39.2501 7.33539 40.0432 9.3348C41.2178 12.3288 40.9467 19.4333 40.9467 22.742C40.9467 26.0507 41.2178 33.1653 40.0432 36.1492Z" fill="url(#paint0_linear_50_28)"/>
<defs>
<linearGradient id="paint0_linear_50_28" x1="53.5" y1="9.48358e-08" x2="-3.11951e-06" y2="45" gradientUnits="userSpaceOnUse">
<stop stop-color="#7B3AAC"/>
<stop offset="0.4375" stop-color="#CE235D"/>
<stop offset="0.703125" stop-color="#F70308"/>
<stop offset="1" stop-color="#F8D400"/>
</linearGradient>
</defs>
</svg>
