<svg width="411" height="115" viewBox="0 0 411 115" fill="none" xmlns="http://www.w3.org/2000/svg">
<path d="M56.6257 114.4C45.0257 114.4 33.4257 110.9 23.4257 103.6C11.2257 94.7003 3.1257 81.6003 0.7257 66.6003C-1.6743 51.6003 1.9257 36.7003 10.8257 24.4003C19.7257 12.1003 32.8257 4.10031 47.8257 1.70031C62.8257 -0.69969 77.7257 2.90031 90.0257 11.8003C102.226 20.7003 110.326 33.8003 112.726 48.8003C115.126 63.8003 111.526 78.7003 102.626 91.0003C91.5257 106.3 74.2257 114.4 56.6257 114.4ZM56.8257 6.70031C54.1257 6.70031 51.4257 6.90031 48.7257 7.30031C35.2257 9.40031 23.4257 16.7003 15.4257 27.7003C7.4257 38.7003 4.2257 52.2003 6.3257 65.7003C8.4257 79.2003 15.7257 91.0003 26.7257 99.0003C35.7257 105.6 46.2257 108.7 56.6257 108.7C72.4257 108.7 88.0257 101.4 97.9257 87.7003C105.926 76.7003 109.126 63.2003 107.026 49.7003C104.926 36.2003 97.6257 24.4003 86.6257 16.4003C77.9257 10.0003 67.5257 6.70031 56.8257 6.70031Z" fill="#283D4E"/>
<path d="M43.1253 36.5999V71.2999C43.1253 82.0999 36.6253 88.3999 27.3253 88.3999C26.0253 88.3999 24.0253 88.3999 22.4253 88.0999L22.9253 78.7999H24.4253C29.9253 78.7999 32.9253 75.8999 32.9253 68.6999V36.5999H28.7253V26.8999H75.9253C86.1253 26.8999 94.2253 33.9999 94.2253 42.6999C94.2253 48.6999 90.2253 54.2999 85.0253 55.6999C92.0253 56.7999 97.2253 62.9999 97.2253 70.7999C97.2253 80.4999 88.8253 87.8999 78.7253 87.8999H53.8253L49.9253 87.9999V78.1999H53.8253V36.5999H43.1253ZM64.0253 36.5999V52.0999H75.6253C80.2253 52.0999 83.9253 48.5999 83.9253 44.1999C83.9253 39.8999 80.2253 36.5999 75.6253 36.5999H64.0253ZM64.0253 78.0999H77.9253C82.9253 78.0999 86.8253 74.1999 86.8253 69.2999C86.8253 64.2999 82.9253 60.3999 78.0253 60.3999H64.0253V78.0999V78.0999Z" fill="#283D4E"/>
<path d="M142.625 45.5001C145.125 45.5001 146.525 44.2001 146.525 40.9001V21.6001H151.225V42.0001C151.225 47.0001 148.225 49.9001 143.925 49.9001C143.325 49.9001 142.425 49.9001 141.725 49.7001L141.925 45.4001H142.625V45.5001Z" fill="#273C4E"/>
<path d="M175.326 39.9C175.326 45.7 170.926 50.1 165.126 50.1C159.426 50.1 155.026 45.7 155.026 39.9C155.026 34.1 159.426 29.7 165.126 29.7C170.826 29.7 175.326 34.1 175.326 39.9ZM164.326 23.8C164.326 25.4 163.026 26.7 161.526 26.7C159.926 26.7 158.626 25.4 158.626 23.8C158.626 22.3 159.926 21 161.526 21C162.926 21 164.326 22.3 164.326 23.8ZM159.426 39.9C159.426 43.2 161.926 45.8 165.126 45.8C168.326 45.8 170.926 43.2 170.926 39.9C170.926 36.5 168.426 34 165.126 34C161.926 34 159.426 36.5 159.426 39.9ZM171.726 23.8C171.726 25.4 170.426 26.7 168.826 26.7C167.226 26.7 166.026 25.4 166.026 23.8C166.026 22.3 167.326 21 168.826 21C170.326 21 171.726 22.3 171.726 23.8Z" fill="#273C4E"/>
<path d="M197.226 38.5002V49.7002H192.726V39.2002C192.726 36.0002 190.926 34.1002 188.126 34.1002C186.126 34.1002 184.226 35.1002 183.226 36.8002V49.6002H178.826V30.1002H183.226V32.7002C184.426 30.8002 186.726 29.7002 189.226 29.7002C194.126 29.7002 197.226 33.1002 197.226 38.5002Z" fill="#273C4E"/>
<path d="M214.425 49.6001L206.125 40.4001V49.6001H201.725V21.6001H206.125V38.5001L214.025 30.1001H219.625L210.625 39.5001L220.225 49.7001H214.425V49.6001Z" fill="#273C4E"/>
<path d="M240.525 39.9C240.525 45.7 236.125 50.1 230.325 50.1C224.625 50.1 220.225 45.7 220.225 39.9C220.225 34.1 224.625 29.7 230.325 29.7C236.025 29.7 240.525 34.1 240.525 39.9ZM229.525 23.8C229.525 25.4 228.225 26.7 226.725 26.7C225.125 26.7 223.825 25.4 223.825 23.8C223.825 22.3 225.125 21 226.725 21C228.225 21 229.525 22.3 229.525 23.8ZM224.625 39.9C224.625 43.2 227.125 45.8 230.325 45.8C233.525 45.8 236.125 43.2 236.125 39.9C236.125 36.5 233.625 34 230.325 34C227.125 34 224.625 36.5 224.625 39.9ZM237.025 23.8C237.025 25.4 235.725 26.7 234.125 26.7C232.525 26.7 231.325 25.4 231.325 23.8C231.325 22.3 232.625 21 234.125 21C235.625 21 237.025 22.3 237.025 23.8Z" fill="#273C4E"/>
<path d="M264.026 39.9002C264.026 45.6002 259.926 50.1002 254.626 50.1002C252.026 50.1002 249.426 48.8002 248.426 47.1002V56.6002H244.026V30.1002H248.426V32.7002C249.426 31.0002 252.026 29.7002 254.626 29.7002C259.926 29.7002 264.026 34.2002 264.026 39.9002ZM259.626 39.9002C259.626 36.5002 257.026 33.9002 253.726 33.9002C251.526 33.9002 249.326 35.1002 248.426 36.8002V42.8002C249.426 44.5002 251.526 45.8002 253.726 45.8002C257.126 45.8002 259.626 43.3002 259.626 39.9002Z" fill="#273C4E"/>
<path d="M272.625 23.8C272.625 25.4 271.325 26.7 269.725 26.7C268.125 26.7 266.925 25.4 266.925 23.8C266.925 22.3 268.225 21 269.725 21C271.325 21 272.625 22.3 272.625 23.8ZM272.025 30.1V49.7H267.625V30.1H272.025Z" fill="#273C4E"/>
<path d="M294.926 38.5002V49.7002H290.426V39.2002C290.426 36.0002 288.626 34.1002 285.826 34.1002C283.826 34.1002 281.926 35.1002 280.926 36.8002V49.6002H276.526V30.1002H280.926V32.7002C282.126 30.8002 284.426 29.7002 286.926 29.7002C291.826 29.7002 294.926 33.1002 294.926 38.5002Z" fill="#273C4E"/>
<path d="M318.325 30.0002V48.9002C318.325 54.3002 314.225 57.8002 308.625 57.8002C305.225 57.8002 301.525 56.6002 299.725 54.6002L301.925 51.5002C303.525 53.0002 305.925 53.8002 308.425 53.8002C311.425 53.8002 313.825 51.8002 313.825 48.8002V46.6002C312.825 48.3002 310.225 49.6002 307.625 49.6002C302.325 49.6002 298.225 45.2002 298.225 39.6002C298.225 34.0002 302.325 29.7002 307.625 29.7002C310.225 29.7002 312.825 30.9002 313.825 32.7002V30.0002H318.325ZM313.925 42.6002V36.7002C312.925 35.0002 310.825 33.8002 308.625 33.8002C305.225 33.8002 302.725 36.3002 302.725 39.6002C302.725 43.0002 305.325 45.4002 308.625 45.4002C310.725 45.4002 312.925 44.2002 313.925 42.6002Z" fill="#273C4E"/>
<path d="M321.625 47.2L323.425 43.8C324.925 45.2 327.825 46.2 330.025 46.2C332.025 46.2 333.225 45.3 333.225 44C333.225 40.4 322.326 42.9 322.326 35.7C322.326 32.1 325.425 29.5 329.925 29.5C332.625 29.5 335.525 30.3 337.225 31.9L335.425 35.3C333.825 33.9 331.025 33.2 329.425 33.2C327.825 33.2 326.725 34 326.725 35.3C326.725 38.6 337.725 36.6 337.725 43.8C337.725 47.3 334.525 49.9 330.125 49.9C326.925 50.1 323.525 48.9 321.625 47.2Z" fill="#273C4E"/>
<path d="M141.625 63.6001H151.825C156.525 63.6001 160.225 66.9001 160.225 70.8001C160.225 73.6001 158.425 76.1001 156.025 76.8001C159.225 77.3001 161.625 80.2001 161.625 83.7001C161.625 88.1001 157.825 91.6001 153.125 91.6001H141.625V63.6001ZM151.625 75.2001C153.725 75.2001 155.425 73.6001 155.425 71.6001C155.425 69.6001 153.725 68.1001 151.625 68.1001H146.225V75.2001H151.625ZM152.725 87.1001C155.025 87.1001 156.825 85.3001 156.825 83.1001C156.825 80.8001 155.025 79.0001 152.825 79.0001H146.425V87.1001H152.725Z" fill="#273C4E"/>
<path d="M170.325 65.8C170.325 67.4 169.025 68.7 167.425 68.7C165.825 68.7 164.625 67.4 164.625 65.8C164.625 64.3 165.925 63 167.425 63C169.025 63 170.325 64.3 170.325 65.8ZM169.625 72.1V91.7H165.225V72.1H169.625Z" fill="#273C4E"/>
<path d="M178.625 91.6001H174.225V63.6001H178.625V91.6001Z" fill="#273C4E"/>
<path d="M202.225 63.6001V91.6001H197.825V89.0001C196.825 90.8001 194.225 92.0001 191.625 92.0001C186.325 92.0001 182.225 87.5001 182.225 81.8001C182.225 76.1001 186.325 71.6001 191.625 71.6001C194.225 71.6001 196.825 72.9001 197.825 74.6001V63.6001H202.225ZM197.825 84.9001V78.9001C196.825 77.2001 194.725 75.9001 192.525 75.9001C189.125 75.9001 186.625 78.4001 186.625 81.8001C186.625 85.2001 189.225 87.8001 192.525 87.8001C194.725 87.8001 196.825 86.5001 197.825 84.9001Z" fill="#273C4E"/>
<path d="M225.025 82.9001H210.125C210.625 86.1001 212.725 88.0001 215.925 88.0001C218.125 88.0001 220.125 87.0001 221.025 85.5001L224.625 87.8001C223.225 90.4001 219.925 92.0001 215.825 92.0001C210.225 92.0001 205.625 87.6001 205.625 81.7001C205.625 76.0001 210.025 71.6001 215.725 71.6001C221.025 71.6001 225.125 75.7001 225.125 80.9001C225.225 81.5001 225.125 82.3001 225.025 82.9001ZM220.525 79.5001C220.325 77.1001 218.225 75.3001 215.525 75.3001C212.825 75.3001 210.925 76.9001 210.325 79.5001H220.525Z" fill="#273C4E"/>
<path d="M259.425 79.7002V91.7002H254.925V80.5002C254.925 77.6002 253.326 75.8002 250.626 75.8002C248.826 75.8002 247.026 77.0002 246.226 78.5002L246.326 79.2002V91.7002H241.826V80.5002C241.826 77.6002 240.126 75.8002 237.626 75.8002C235.626 75.8002 234.026 77.0002 233.226 78.5002V91.6002H228.826V72.1002H233.226V74.7002C234.226 73.4002 236.126 71.7002 239.226 71.7002C241.926 71.7002 243.826 72.7002 245.126 74.9002C246.426 73.3002 248.725 71.7002 251.525 71.7002C256.125 71.7002 259.425 74.8002 259.425 79.7002Z" fill="#273C4E"/>
<path d="M283.125 81.9002C283.125 87.7002 278.725 92.1002 272.925 92.1002C267.225 92.1002 262.826 87.7002 262.826 81.9002C262.826 76.1002 267.225 71.7002 272.925 71.7002C278.725 71.7002 283.125 76.1002 283.125 81.9002ZM267.225 81.9002C267.225 85.2002 269.725 87.8002 272.925 87.8002C276.125 87.8002 278.725 85.2002 278.725 81.9002C278.725 78.5002 276.225 76.0002 272.925 76.0002C269.725 76.0002 267.225 78.5002 267.225 81.9002Z" fill="#273C4E"/>
<path d="M305.025 80.5002V91.7002H300.625V81.2002C300.625 78.0002 298.825 76.1002 296.025 76.1002C294.025 76.1002 292.125 77.1002 291.125 78.8002V91.6002H286.625V72.1002H291.025V74.7002C292.225 72.8002 294.525 71.7002 297.025 71.7002C301.925 71.7002 305.025 75.1002 305.025 80.5002Z" fill="#273C4E"/>
<path d="M320.725 91.3999C320.125 91.6999 319.126 91.8999 318.326 91.8999C314.026 91.8999 310.925 89.0999 310.925 84.2999V76.2999H307.125V72.0999H310.925V66.8999H315.326V72.0999H320.425V76.2999H315.326V84.0999C315.326 86.3999 316.925 87.6999 318.925 87.6999C319.425 87.6999 320.025 87.5999 320.425 87.4999L320.725 91.3999Z" fill="#273C4E"/>
<path d="M341.625 82.9001H326.725C327.225 86.1001 329.325 88.0001 332.525 88.0001C334.725 88.0001 336.725 87.0001 337.625 85.5001L341.225 87.8001C339.825 90.4001 336.525 92.0001 332.425 92.0001C326.825 92.0001 322.225 87.6001 322.225 81.7001C322.225 76.0001 326.625 71.6001 332.325 71.6001C337.625 71.6001 341.725 75.7001 341.725 80.9001C341.825 81.5001 341.725 82.3001 341.625 82.9001ZM337.125 79.5001C336.925 77.1001 334.825 75.3001 332.125 75.3001C329.425 75.3001 327.525 76.9001 326.925 79.5001H337.125Z" fill="#273C4E"/>
<path d="M357.025 72.0002L356.725 76.2002C356.025 76.0002 355.125 75.8002 354.425 75.8002C352.925 75.8002 350.826 77.0002 349.826 79.2002V91.7002H345.425V72.1002H349.826V74.8002C350.826 72.9002 353.026 71.7002 354.826 71.7002C355.726 71.7002 356.425 71.8002 357.025 72.0002Z" fill="#273C4E"/>
<path d="M364.726 65.8C364.726 67.4 363.426 68.7 361.826 68.7C360.226 68.7 359.026 67.4 359.026 65.8C359.026 64.3 360.326 63 361.826 63C363.426 63 364.726 64.3 364.726 65.8ZM364.126 72.1V91.7H359.626V72.1H364.126Z" fill="#273C4E"/>
<path d="M387.025 80.5002V91.7002H382.525V81.2002C382.525 78.0002 380.725 76.1002 377.925 76.1002C375.925 76.1002 374.025 77.1002 373.025 78.8002V91.6002H368.625V72.1002H373.025V74.7002C374.225 72.8002 376.525 71.7002 379.025 71.7002C383.925 71.7002 387.025 75.1002 387.025 80.5002Z" fill="#273C4E"/>
<path d="M410.425 72.0002V90.9002C410.425 96.3002 406.325 99.8002 400.725 99.8002C397.325 99.8002 393.626 98.6002 391.826 96.6002L394.025 93.5002C395.625 95.0002 398.025 95.8002 400.525 95.8002C403.525 95.8002 405.925 93.8002 405.925 90.8002V88.6002C404.925 90.3002 402.325 91.6002 399.725 91.6002C394.425 91.6002 390.326 87.2002 390.326 81.6002C390.326 76.0002 394.425 71.7002 399.725 71.7002C402.325 71.7002 404.925 72.9002 405.925 74.7002V72.0002H410.425ZM406.025 84.6002V78.7002C405.025 77.0002 402.925 75.8002 400.725 75.8002C397.325 75.8002 394.826 78.3002 394.826 81.6002C394.826 85.0002 397.425 87.4002 400.725 87.4002C402.925 87.4002 405.025 86.2002 406.025 84.6002Z" fill="#273C4E"/>
</svg>
