<svg width="45" height="37" viewBox="0 0 45 37" fill="none" xmlns="http://www.w3.org/2000/svg">
<path d="M40.3744 9.10849C40.4029 9.50822 40.4029 9.90804 40.4029 10.3078C40.4029 22.5 31.1231 36.5483 14.1624 36.5483C8.93707 36.5483 4.08303 35.0349 -0.00012207 32.4081C0.742293 32.4937 1.45606 32.5223 2.22704 32.5223C6.53853 32.5223 10.5075 31.0661 13.6769 28.582C9.62236 28.4963 6.22449 25.8408 5.05378 22.186C5.6249 22.2716 6.19593 22.3287 6.79561 22.3287C7.62363 22.3287 8.45174 22.2144 9.22263 22.0147C4.99674 21.158 1.82722 17.4461 1.82722 12.9632V12.849C3.05497 13.5343 4.48276 13.9626 5.99598 14.0197C3.51183 12.3635 1.88435 9.53679 1.88435 6.33878C1.88435 4.62561 2.34112 3.05518 3.14066 1.68461C7.68067 7.28106 14.505 10.9358 22.1572 11.3356C22.0145 10.6504 21.9288 9.9366 21.9288 9.22275C21.9288 4.14019 26.0405 0 31.1515 0C33.807 0 36.2054 1.11358 37.8901 2.91244C39.9744 2.51271 41.9732 1.74174 43.7436 0.685286C43.0582 2.82684 41.602 4.6257 39.689 5.76776C41.545 5.56798 43.3438 5.05391 44.9999 4.34014C43.7437 6.16748 42.1732 7.79496 40.3744 9.10849Z" fill="#6EA8FE"/>
</svg>
