<svg width="235" height="142" viewBox="0 0 235 142" fill="none" xmlns="http://www.w3.org/2000/svg">
<g clip-path="url(#clip0_41_48)">
<path d="M32.9242 68.1176V61.1931C28.2806 66.3784 23.2501 69.0355 17.7358 69.2448C15.3359 69.2793 12.9585 68.7781 10.7771 67.778C8.59581 66.7778 6.66557 65.3039 5.12727 63.4637C1.78433 59.8672 0.118239 54.6175 0.128988 47.7145V14.0906H10.1901V48.4231C10.1901 56.3138 13.6996 60.2967 20.7187 60.3718C25.3945 60.3718 29.463 57.8436 32.9242 52.7871V14.1389H42.9691V68.1176H32.9242ZM68.9763 20.9345H69.1859C73.3673 15.6526 78.4462 12.9687 84.4226 12.8828C86.7434 12.8349 89.0469 13.291 91.1738 14.2197C93.3007 15.1483 95.2002 16.5274 96.741 18.2614C99.9657 21.7719 101.626 27.2793 101.723 34.7835V68.1176H91.7105V34.5741C91.9101 31.156 90.9935 27.7654 89.0985 24.9121C88.2426 23.773 87.1248 22.8565 85.8395 22.2398C84.5541 21.6232 83.1391 21.3246 81.7139 21.3693C79.5481 21.3801 77.4256 21.9754 75.5708 23.0924C73.0677 24.8031 70.8434 26.8888 68.9763 29.2761V68.1176H58.9153V14.0906H68.9763V20.9345ZM158.236 22.3355H147.627C149.415 23.9288 150.891 25.84 151.98 27.9717C152.781 29.9345 153.187 32.0359 153.173 34.1554C153.085 36.4497 152.617 38.7135 151.787 40.8545C150.982 42.8561 149.812 44.6909 148.336 46.2652C146.689 48.0495 144.614 49.3852 142.306 50.1461C140.119 50.892 137.876 51.4628 135.599 51.8531C133.729 52.0769 131.89 52.509 130.117 53.1414C129.407 53.3627 128.79 53.8099 128.359 54.4148C127.928 55.0197 127.707 55.7489 127.73 56.4909C127.73 59.2446 132.987 61.5635 143.467 63.4959C148.841 64.6446 152.738 66.5287 155.156 69.1482C157.274 71.8236 158.412 75.1421 158.381 78.5526C158.134 89.8142 150.072 95.5578 134.196 95.7832C127.182 95.7832 121.539 94.1729 117.25 91.0972C115.216 89.8931 113.526 88.1868 112.343 86.1422C111.16 84.0976 110.523 81.7835 110.494 79.4222C110.43 71.6711 114.692 66.7273 123.28 64.5909C119.959 62.3257 118.346 60.039 118.443 57.7309C118.443 56.8113 118.643 55.9028 119.03 55.0685C119.417 54.2342 119.982 53.4941 120.684 52.8998C122.302 51.4327 124.294 50.4406 126.44 50.0334V49.7919C123.026 48.3511 120.091 45.9723 117.976 42.9318C116.005 39.9212 114.998 36.3826 115.09 32.7866C115.229 20.591 122.603 14.359 137.211 14.0906H158.172L158.236 22.3355ZM144.16 32.8833C144.166 31.6171 143.917 30.3628 143.426 29.1952C142.936 28.0276 142.215 26.9707 141.306 26.0876C139.361 24.3019 136.814 23.3109 134.172 23.3109C131.529 23.3109 128.983 24.3019 127.037 26.0876C126.053 26.9787 125.27 28.0682 124.739 29.2841C124.208 30.5 123.942 31.8145 123.957 33.1409C123.903 34.4494 124.129 35.7543 124.622 36.968C125.114 38.1818 125.861 39.2763 126.811 40.1781C127.782 41.1581 128.948 41.9228 130.235 42.4222C131.521 42.9216 132.898 43.1447 134.277 43.0767C135.606 43.1402 136.934 42.9137 138.168 42.4132C139.401 41.9126 140.511 41.15 141.419 40.1781C143.228 38.1891 144.208 35.5857 144.16 32.8994V32.8833ZM148.578 79.5188C148.633 77.8901 148.055 76.3033 146.966 75.0903C145.736 73.8901 144.221 73.0204 142.564 72.5621C139.042 71.3822 135.346 70.8051 131.632 70.8551C128.647 70.7306 125.697 71.5292 123.184 73.1418C122.157 73.7468 121.309 74.6121 120.726 75.6501C120.143 76.688 119.845 77.8616 119.862 79.0518C119.927 84.5484 124.731 87.3343 134.277 87.4095C143.66 87.3236 148.428 84.6934 148.578 79.5188ZM5.33688 77.2965C5.10853 77.1941 4.86163 77.1393 4.61132 77.1355C4.35702 77.1157 4.10167 77.1565 3.86622 77.2545C3.63078 77.3525 3.42197 77.5049 3.25695 77.6991C2.95177 78.1778 2.81556 78.7446 2.86998 79.3094V80.1468H4.35334V81.7572H2.86998V88.891H1.25763V81.725H0V80.1146H1.22539V79.4705C1.2299 78.8076 1.36125 78.1517 1.61235 77.5381C1.75417 77.0763 2.00341 76.6547 2.3397 76.3076C2.67599 75.9606 3.08976 75.6979 3.54717 75.5412C4.14579 75.4254 4.76477 75.4755 5.33688 75.6862V77.2965ZM9.6741 79.9858C10.2684 79.9568 10.8623 80.0521 11.4176 80.2657C11.9728 80.4792 12.4774 80.8062 12.8988 81.2257C13.3147 81.6504 13.6405 82.1545 13.8566 82.708C14.0727 83.2614 14.1747 83.8527 14.1564 84.4464C14.1939 85.675 13.7416 86.8681 12.8988 87.7637C12.4808 88.1899 11.9776 88.5234 11.422 88.7426C10.8664 88.9618 10.2709 89.0617 9.6741 89.0359C9.08944 89.0562 8.50728 88.9502 7.96743 88.7251C7.42757 88.4999 6.94276 88.161 6.54614 87.7315C5.74018 86.8541 5.30164 85.7014 5.32076 84.5108C5.29792 83.9152 5.39936 83.3212 5.61864 82.7668C5.83792 82.2123 6.17025 81.7095 6.59451 81.2902C6.98442 80.8652 7.46114 80.5289 7.99244 80.3039C8.52373 80.0788 9.09721 79.9704 9.6741 79.9858ZM9.6741 81.5961C9.32186 81.5884 8.97192 81.6546 8.64695 81.7905C8.32198 81.9265 8.02922 82.1291 7.78765 82.3852C7.27218 82.9591 6.99539 83.7079 7.01372 84.4786C6.97739 85.2882 7.24798 86.0818 7.77153 86.7009C8.00646 86.9708 8.29994 87.1836 8.62963 87.3231C8.95932 87.4627 9.31654 87.5252 9.6741 87.5061C11.5283 87.5061 12.4635 86.4433 12.4957 84.4464C12.5146 83.663 12.2319 82.9021 11.7057 82.3208C11.438 82.059 11.1199 81.8542 10.7708 81.7185C10.4216 81.5829 10.0485 81.5194 9.6741 81.5317V81.5961ZM8.19074 76.7007C8.72281 76.7007 8.99691 77.0228 9.01304 77.5864C9.02699 77.7013 9.01596 77.8179 8.98071 77.9282C8.94546 78.0385 8.88681 78.1399 8.80876 78.2254C8.73071 78.311 8.6351 78.3788 8.52845 78.4241C8.4218 78.4695 8.30661 78.4913 8.19074 78.4882C8.07294 78.4934 7.9554 78.4732 7.8461 78.429C7.73679 78.3849 7.63827 78.3178 7.55722 78.2322C7.47617 78.1467 7.41448 78.0448 7.37635 77.9333C7.33821 77.8219 7.32452 77.7036 7.33619 77.5864C7.32422 77.4699 7.33783 77.3522 7.37608 77.2415C7.41432 77.1308 7.47629 77.0298 7.55764 76.9454C7.639 76.8611 7.7378 76.7955 7.84714 76.7533C7.95648 76.711 8.07374 76.6931 8.19074 76.7007ZM11.7057 76.7007C11.8213 76.6955 11.9368 76.7152 12.0442 76.7586C12.1515 76.8019 12.2483 76.8678 12.3278 76.9519C12.4074 77.0359 12.4679 77.1361 12.5052 77.2456C12.5425 77.3551 12.5558 77.4713 12.5441 77.5864C12.5894 77.7151 12.6031 77.8527 12.5842 77.9878C12.5653 78.1229 12.5142 78.2515 12.4352 78.3628C12.3563 78.4741 12.2517 78.5649 12.1304 78.6276C12.0091 78.6902 11.8745 78.7229 11.7379 78.7229C11.6013 78.7229 11.4667 78.6902 11.3454 78.6276C11.2241 78.5649 11.1196 78.4741 11.0406 78.3628C10.9617 78.2515 10.9106 78.1229 10.8916 77.9878C10.8727 77.8527 10.8864 77.7151 10.9317 77.5864C10.9198 77.4699 10.9334 77.3522 10.9716 77.2415C11.0099 77.1308 11.0718 77.0298 11.1532 76.9454C11.2345 76.8611 11.3333 76.7955 11.4427 76.7533C11.552 76.711 11.6693 76.6931 11.7863 76.7007H11.7057ZM17.9938 80.1629V82.1275C18.8161 80.6782 19.6062 79.9536 20.3801 79.9536C20.7593 79.9824 21.1289 80.0871 21.4668 80.2614C21.8047 80.4356 22.1041 80.676 22.3472 80.9681L21.4765 82.4657C21.0928 82.0057 20.5536 81.702 19.9609 81.6122C19.6824 81.6227 19.41 81.6963 19.1642 81.8274C18.9184 81.9585 18.7056 82.1438 18.542 82.3691C18.1376 82.9303 17.9333 83.6107 17.9616 84.3015V88.8588H16.3492V80.1629H17.9938ZM30.2154 88.0214C29.2838 88.7108 28.15 89.0731 26.9907 89.052C26.4193 89.0708 25.8519 88.9501 25.3377 88.7004C24.8236 88.4506 24.3782 88.0794 24.0401 87.6188C23.3317 86.6969 22.9617 85.5599 22.9921 84.3981C22.9394 83.2279 23.3245 82.0798 24.0724 81.1774C24.4154 80.7814 24.842 80.4663 25.3215 80.2547C25.801 80.0431 26.3215 79.9402 26.8456 79.9536C29.1835 79.9536 30.3767 81.5639 30.4089 84.7846H24.5722C24.8463 86.5238 25.7654 87.3934 27.3455 87.3934C28.3891 87.3577 29.3943 86.991 30.2154 86.3466V88.0214ZM28.7643 83.7379C28.6676 82.3047 28.0388 81.58 26.8295 81.5478C25.6202 81.5156 24.8463 82.2886 24.6206 83.7379H28.7643ZM34.3269 80.1629H36.9389V81.7733H34.3269V86.2178C34.3129 86.4102 34.3434 86.6033 34.4161 86.782C34.4888 86.9607 34.6017 87.1203 34.7461 87.2484C34.954 87.4376 35.2229 87.5461 35.5039 87.5544C36.1738 87.5226 36.8192 87.2928 37.3582 86.8942V88.5045C36.7564 88.8613 36.0743 89.0607 35.375 89.0842C35.0067 89.106 34.6381 89.0466 34.2954 88.9102C33.9527 88.7739 33.6442 88.5639 33.3918 88.2952C32.9155 87.767 32.6664 87.0728 32.6985 86.3627V81.725H31.2635V81.5317L34.3269 78.311V80.1629ZM45.1458 88.3757C44.6902 88.7604 44.1275 88.9965 43.5335 89.052C43.2427 89.0629 42.9556 88.9841 42.7112 88.8266C42.601 88.7497 42.5073 88.6517 42.4353 88.5384C42.3633 88.4251 42.3146 88.2986 42.2919 88.1663C41.6748 88.7091 40.8887 89.0221 40.0669 89.052C39.7907 89.059 39.5166 89.0033 39.2652 88.8889C39.0138 88.7745 38.7917 88.6045 38.6158 88.3918C38.4256 88.1955 38.2763 87.9635 38.1767 87.7092C38.077 87.4549 38.029 87.1833 38.0353 86.9103C38.026 86.515 38.1265 86.1248 38.3256 85.783C38.4877 85.5037 38.7075 85.2622 38.9705 85.0745C39.2536 84.864 39.5559 84.6807 39.8734 84.527L40.8569 84.1566L42.3081 83.6091V83.1421C42.3081 82.1114 41.8082 81.5317 40.8086 81.5317C40.2953 81.5658 39.7961 81.7135 39.3471 81.9642C38.8981 82.2149 38.5106 82.5622 38.2127 82.981V81.1613C38.5453 80.7687 38.9644 80.4583 39.4371 80.2544C39.9098 80.0504 40.4234 79.9585 40.9376 79.9858C41.705 79.9508 42.4597 80.1907 43.0659 80.6621C43.3624 80.9415 43.594 81.2823 43.7445 81.6607C43.8949 82.0391 43.9604 82.4458 43.9365 82.8522V87.3451C43.9365 87.651 44.0333 87.796 44.2429 87.796C44.3776 87.7831 44.5061 87.7329 44.6137 87.651C44.7934 87.5654 44.9614 87.4571 45.1136 87.3289L45.1458 88.3757ZM42.3403 84.5592C41.709 84.7764 41.0991 85.0514 40.5184 85.3804C40.2829 85.4888 40.0825 85.6609 39.94 85.8772C39.7975 86.0935 39.7186 86.3454 39.7122 86.6043C39.7049 86.7672 39.7313 86.9299 39.7895 87.0822C39.8477 87.2346 39.9367 87.3734 40.0508 87.49C40.1596 87.601 40.2903 87.6884 40.4346 87.7466C40.5789 87.8048 40.7337 87.8326 40.8892 87.8282C41.1669 87.8164 41.4392 87.7474 41.6889 87.6254C41.9387 87.5035 42.1604 87.3313 42.3403 87.1196V84.5592ZM53.3365 81.4995H51.5952C51.8838 81.7576 52.1193 82.0694 52.2885 82.4174C52.4223 82.733 52.4882 83.0732 52.482 83.4158C52.4613 83.7847 52.3852 84.1484 52.2563 84.4948C52.1351 84.819 51.9485 85.115 51.7081 85.3643C51.4502 85.6593 51.1152 85.8768 50.7407 85.9924C50.3823 86.1101 50.0159 86.2016 49.6443 86.2661C49.3427 86.3079 49.0458 86.378 48.7575 86.4755C48.6517 86.5076 48.5582 86.571 48.4891 86.6572C48.4201 86.7434 48.3787 86.8485 48.3705 86.9586C48.3705 87.3934 49.2089 87.7637 50.8858 88.0858C51.5928 88.1842 52.2519 88.4993 52.7722 88.9876C53.1265 89.4481 53.309 90.0176 53.2882 90.5979C53.2882 92.4176 51.9499 93.3355 49.3702 93.3838C48.4406 93.3841 47.5317 93.1096 46.7581 92.5948C46.4288 92.4012 46.1549 92.1262 45.9628 91.7962C45.7708 91.4662 45.6671 91.0923 45.6618 90.7107C45.6381 90.1216 45.84 89.5456 46.2263 89.0999C46.6127 88.6542 47.1546 88.3722 47.7417 88.3113C47.215 87.9355 46.957 87.5651 46.9678 87.2001C46.9661 87.0508 46.997 86.9029 47.0582 86.7666C47.1195 86.6304 47.2096 86.5091 47.3225 86.4111C47.5885 86.1772 47.9107 86.0163 48.2576 85.9441C47.7062 85.7082 47.2316 85.3234 46.8871 84.8329C46.5779 84.3537 46.4206 83.7925 46.4357 83.2226C46.4357 81.258 47.6288 80.2595 50.0151 80.2273H53.4172L53.3365 81.4995ZM51.0631 83.1099C51.0612 82.908 51.0188 82.7085 50.9385 82.5232C50.8582 82.3379 50.7416 82.1705 50.5955 82.0309C50.2861 81.7412 49.8748 81.585 49.4508 81.5961C49.0355 81.6273 48.6484 81.8177 48.3705 82.1275C48.214 82.2701 48.0898 82.4444 48.0064 82.6388C47.9229 82.8333 47.8822 83.0433 47.8868 83.2548C47.8782 83.4629 47.9156 83.6704 47.9964 83.8625C48.0772 84.0545 48.1995 84.2264 48.3544 84.3659C48.5094 84.524 48.6953 84.6485 48.9006 84.7316C49.1059 84.8147 49.3261 84.8547 49.5475 84.849C49.762 84.856 49.9754 84.8164 50.173 84.733C50.3706 84.6496 50.5478 84.5243 50.6923 84.3659C50.8408 84.2122 50.9571 84.0305 51.0346 83.8315C51.1121 83.6324 51.1492 83.42 51.1437 83.2065L51.0631 83.1099ZM51.8532 90.7429C51.8608 90.6121 51.8402 90.4812 51.793 90.359C51.7457 90.2367 51.6727 90.1261 51.5791 90.0343C51.3913 89.8332 51.1513 89.6882 50.8858 89.6156C50.314 89.4262 49.7145 89.3337 49.1122 89.3419C48.6271 89.3125 48.1458 89.4426 47.7417 89.7123C47.5747 89.8085 47.4362 89.947 47.3399 90.1138C47.2437 90.2806 47.1932 90.4698 47.1935 90.6624C47.1935 91.5641 47.9835 92.0151 49.5314 92.0312C51.0792 92.0473 51.8371 91.5803 51.8532 90.7429ZM59.6569 82.4013C58.9521 81.8901 58.122 81.5786 57.2545 81.4995C56.5612 81.4995 56.1904 81.7894 56.1743 82.3047C56.1743 82.4818 56.3355 82.7073 56.658 82.9649C57.1604 83.3742 57.7002 83.7354 58.2703 84.0438C58.7899 84.4135 59.2564 84.8523 59.6569 85.3482C59.9277 85.699 60.075 86.1292 60.0762 86.5721C60.0782 87.2651 59.8058 87.9308 59.3184 88.424C58.772 88.8934 58.0718 89.1456 57.3513 89.1325C56.3458 89.1184 55.3617 88.8408 54.4974 88.3274V86.3788C55.2638 87.0173 56.1991 87.42 57.1901 87.5383C57.5 87.5161 57.7994 87.4164 58.0607 87.2484C58.2356 87.1167 58.3532 86.923 58.3892 86.7073C58.4252 86.4915 58.3769 86.2702 58.2542 86.089C58.1242 85.9394 57.9782 85.8044 57.8189 85.6864L56.4323 84.849C55.9485 84.5644 55.504 84.218 55.1101 83.8184C54.9094 83.631 54.7498 83.4039 54.6416 83.1517C54.5333 82.8994 54.4787 82.6274 54.4813 82.353C54.4597 82.0253 54.5156 81.6972 54.6444 81.395C54.7732 81.0929 54.9714 80.8253 55.223 80.6138C55.7801 80.172 56.4796 79.9487 57.1901 79.9858C58.0481 80.0153 58.8851 80.2589 59.6247 80.6943L59.6569 82.4013ZM68.5571 88.3757C68.0984 88.7553 67.5373 88.9906 66.9448 89.052C66.6487 89.0651 66.3558 88.9864 66.1063 88.8266C65.8939 88.659 65.7412 88.4275 65.671 88.1663C65.0659 88.708 64.2902 89.0213 63.4782 89.052C63.2015 89.0627 62.9262 89.0086 62.6742 88.894C62.4222 88.7793 62.2006 88.6073 62.0271 88.3918C61.8369 88.1955 61.6877 87.9635 61.588 87.7092C61.4884 87.4549 61.4403 87.1833 61.4467 86.9103C61.4395 86.5172 61.5339 86.129 61.7208 85.783C61.8876 85.5072 62.1067 85.2666 62.3657 85.0745C62.6521 84.8605 62.9601 84.6769 63.2847 84.527C63.5911 84.3981 63.9136 84.2693 64.2521 84.1566L65.7033 83.6091V83.1421C65.7033 82.1114 65.2034 81.5317 64.2199 81.5317C63.7039 81.5635 63.2015 81.7101 62.7495 81.9609C62.2976 82.2116 61.9075 82.5602 61.6079 82.981V81.1613C61.9422 80.7665 62.3639 80.4547 62.8396 80.2507C63.3153 80.0467 63.832 79.956 64.3489 79.9858C65.1109 79.9547 65.8592 80.1943 66.4611 80.6621C66.7641 80.9365 67.0001 81.2765 67.1511 81.6562C67.302 82.0358 67.3638 82.445 67.3317 82.8522V87.3451C67.3317 87.651 67.4285 87.796 67.6381 87.796C67.7734 87.7859 67.9026 87.7354 68.0089 87.651C68.1939 87.5659 68.3672 87.4577 68.5249 87.3289L68.5571 88.3757ZM65.7355 84.5592C65.1016 84.7828 64.4869 85.0575 63.8974 85.3804C63.6693 85.4967 63.4761 85.6711 63.3373 85.8861C63.1986 86.101 63.1192 86.3488 63.1074 86.6043C63.1001 86.7672 63.1264 86.9299 63.1847 87.0822C63.2429 87.2346 63.3319 87.3734 63.446 87.49C63.5573 87.6023 63.6907 87.6903 63.8378 87.7485C63.9849 87.8067 64.1424 87.8338 64.3005 87.8282C64.5763 87.8181 64.8468 87.7498 65.0941 87.6276C65.3415 87.5055 65.5601 87.3323 65.7355 87.1196V84.5592ZM71.6045 80.179V81.3063C71.9236 80.9283 72.3144 80.6171 72.7543 80.3905C73.1943 80.1639 73.6748 80.0263 74.1681 79.9858C74.699 79.9892 75.2182 80.1421 75.6659 80.4269C76.1137 80.7118 76.472 81.117 76.6995 81.5961C77.0724 81.1658 77.5007 80.7868 77.9732 80.4689C78.4562 80.1671 79.0159 80.0106 79.5856 80.018C79.9784 80.0041 80.3692 80.0812 80.7272 80.2432C81.0852 80.4053 81.4009 80.6478 81.6494 80.952C82.1998 81.6638 82.4746 82.5501 82.4233 83.448V88.9232H80.6175V83.4802C80.6426 83.1911 80.61 82.8998 80.5214 82.6233C80.4328 82.3469 80.2901 82.0908 80.1015 81.8699C79.9315 81.7039 79.7296 81.574 79.5079 81.4882C79.2861 81.4024 79.0493 81.3624 78.8117 81.3707C78.4884 81.3747 78.1738 81.4757 77.9088 81.6605C77.5393 81.8807 77.2028 82.1518 76.9091 82.4657V88.891H75.2967V83.4802C75.3388 82.9073 75.1791 82.3377 74.8453 81.8699C74.7036 81.7177 74.5311 81.5974 74.3393 81.5169C74.1475 81.4363 73.9408 81.3975 73.7328 81.4029C73.3501 81.3982 72.9708 81.4751 72.6202 81.6283C72.224 81.8567 71.8696 82.1508 71.5722 82.4979V88.891H69.9599V80.179H71.6045ZM86.422 81.2741C86.704 80.8858 87.0718 80.5677 87.4968 80.3443C87.9218 80.1209 88.3926 79.9982 88.8727 79.9858C89.252 79.9738 89.6293 80.0455 89.9777 80.1958C90.3261 80.3461 90.6369 80.5713 90.8882 80.8554C91.4554 81.6333 91.7347 82.5839 91.6782 83.5446V88.891H90.0659V83.4802C90.1173 82.9111 89.9691 82.3419 89.6467 81.8699C89.5127 81.6847 89.3354 81.5351 89.1302 81.4341C88.9251 81.333 88.6983 81.2836 88.4696 81.2902C88.1158 81.2912 87.7694 81.3917 87.47 81.58C87.0693 81.8481 86.7153 82.18 86.422 82.5623V88.8427H84.8096V75.6862H86.422V81.2741ZM101.159 88.0214C100.224 88.7054 99.0926 89.0671 97.9341 89.052C97.3627 89.0708 96.7953 88.9501 96.2811 88.7004C95.767 88.4506 95.3216 88.0794 94.9835 87.6188C94.2751 86.6969 93.9051 85.5599 93.9355 84.3981C93.8828 83.2279 94.2679 82.0798 95.0158 81.1774C95.3588 80.7814 95.7854 80.4663 96.2649 80.2547C96.7444 80.0431 97.2649 79.9402 97.789 79.9536C100.127 79.9536 101.304 81.5639 101.352 84.7846H95.4995C95.7736 86.5238 96.6926 87.3934 98.2727 87.3934C99.3213 87.3577 100.332 86.9913 101.159 86.3466V88.0214ZM99.6916 83.7379C99.6916 82.3047 98.966 81.58 97.7568 81.5478C96.5475 81.5156 95.7736 82.2886 95.5479 83.7379H99.6916ZM105.27 80.1629H107.866V81.7733H105.27V86.2178C105.25 86.4092 105.277 86.6027 105.347 86.7819C105.417 86.9612 105.529 87.1212 105.673 87.2484C105.881 87.4376 106.15 87.5461 106.431 87.5544C107.102 87.5255 107.748 87.2954 108.285 86.8942V88.5045C107.685 88.8632 107.002 89.0628 106.302 89.0842C105.934 89.1049 105.566 89.045 105.223 88.9087C104.881 88.7724 104.572 88.563 104.319 88.2952C103.843 87.767 103.594 87.0728 103.626 86.3627V81.725H102.191V81.5317L105.27 78.311V80.1629Z" fill="black"/>
<path d="M170.49 17.1663C179.251 15.712 187.833 13.3369 196.094 10.0807C206.993 5.33023 207.735 2.15786 209.718 0C214.72 5.19159 219.093 10.9533 222.746 17.1663C224.358 19.7428 233.162 36.8768 234.403 44.9769C227.051 56.4425 218.748 63.3187 209.605 71.2899C200.463 79.2611 189.322 88.1179 178.552 93.4804C178.552 93.4804 153.189 104.608 143.87 108.392C134.551 112.176 163.041 99.5514 163.041 99.5514L131.132 109.503L156.93 100.775L139.194 105.397C139.194 105.397 160.316 100.437 167.475 97.1037C174.634 93.7702 179.068 91.7573 181.067 90.6623C189.423 85.3057 197.285 79.216 204.559 72.4654C210.363 67.2318 216.748 59.937 216.748 59.937C221.317 54.8177 225.203 49.1287 228.309 43.0122C230.808 37.4727 230.34 37.3116 230.34 37.3116C227.989 31.3809 224.808 25.8129 220.892 20.7734C216.474 14.944 211.831 10.1774 208.944 8.85688C208.944 8.85688 199.673 13.4786 195.223 14.5253C190.773 15.572 181.244 17.8426 178.697 17.8748C180.688 21.7655 182.224 25.872 183.276 30.1134C184.756 36.1616 185.668 42.3344 186.001 48.5518C186.357 55.2245 185.771 61.9141 184.259 68.4235C182.487 76.3284 180.126 84.0903 177.197 91.6446C179.535 81.9825 179.632 72.5459 180.067 62.3525C180.301 55.1468 179.662 47.9392 178.165 40.8866C176.59 33.7968 174.433 26.8487 171.715 20.1132C171.086 18.7283 170.538 17.1663 170.538 17.1663H170.49ZM193.675 69.7117C201.963 55.734 207.88 37.6337 208.332 21.2082L193.675 69.7117Z" fill="black"/>
<path fill-rule="evenodd" clip-rule="evenodd" d="M30.1671 129.906L32.0374 135.591H28.1678L30.1671 129.906ZM28.7321 140.213V139.713H26.7166L27.942 136.106H32.247L33.4563 139.713H31.3763V140.213H37.6806V139.713H36.0683L31.5053 126.299H30.8443L26.1201 139.713H24.5077V140.213H28.7321ZM54.9166 127.104H56.8837V126.589H51.8532L48.9671 135.913L46.1938 126.589H41.0666V127.104H43.0336V139.713H41.0666V140.229H45.5973V139.713H43.6786V127.459H43.7108L47.6611 140.229H48.3383L52.3046 127.459H52.3691V139.713H50.4021V140.229H56.8837V139.713H54.9166V127.104Z" fill="black"/>
<path fill-rule="evenodd" clip-rule="evenodd" d="M59.2539 135.269C59.2539 133.98 59.0765 132.499 60.7211 132.499C62.3657 132.499 62.1561 133.9 62.1561 135.269H59.2539ZM63.8974 135.784C64.2199 135.784 64.3973 135.784 64.3973 135.414C64.3934 134.958 64.2976 134.507 64.1157 134.089C63.9338 133.671 63.6695 133.293 63.3385 132.979C63.0075 132.665 62.6166 132.421 62.1891 132.261C61.7616 132.101 61.3062 132.029 60.8501 132.048C59.7652 132.11 58.7465 132.589 58.0072 133.385C57.2678 134.18 56.8653 135.23 56.8837 136.315C56.8465 137.365 57.2135 138.389 57.9093 139.177C58.6051 139.965 59.5768 140.457 60.6244 140.551C61.5132 140.639 62.4029 140.392 63.1189 139.859C63.8349 139.326 64.3254 138.544 64.494 137.668H63.9942C63.8456 138.348 63.4719 138.957 62.9336 139.398C62.3953 139.84 61.7237 140.087 61.0275 140.1C59.3345 140.1 59.2539 138.763 59.2539 137.33V135.72L63.8974 135.784Z" fill="black"/>
<path fill-rule="evenodd" clip-rule="evenodd" d="M67.8961 132.048C66.6384 132.048 65.4292 132.161 64.4134 132.048V132.548H65.7839V139.617H64.494V140.116H68.9925V139.617H67.8961V135.817C67.8961 134.303 68.8957 132.757 69.8631 132.757C70.8305 132.757 70.8305 133.9 70.8305 134.834V139.665H69.7825V140.164H74.023V139.665H72.9266V135.768C72.9266 134.528 73.5232 132.757 75.0065 132.757C75.9417 132.757 75.8449 133.691 75.8449 134.271V139.714H74.7969V140.213H79.2309V139.714H77.9571V135.768C77.9571 133.675 78.1667 132.032 75.5708 132.032C75.0333 132.043 74.5088 132.2 74.0542 132.487C73.5995 132.773 73.2319 133.179 72.9911 133.659C72.8362 133.175 72.5268 132.756 72.1103 132.465C71.6938 132.174 71.1932 132.028 70.6854 132.048C70.0774 132.046 69.4843 132.236 68.9916 132.592C68.499 132.948 68.1323 133.451 67.9444 134.029L67.8961 132.048Z" fill="black"/>
<path fill-rule="evenodd" clip-rule="evenodd" d="M80.295 139.713H78.86V140.229C80.0556 140.171 81.254 140.224 82.4394 140.39V139.118C82.6969 139.536 83.0539 139.884 83.4787 140.131C83.9034 140.379 84.3828 140.517 84.8741 140.535C85.9306 140.481 86.923 140.012 87.6355 139.231C88.348 138.45 88.7231 137.42 88.6792 136.364C88.7238 135.283 88.3444 134.227 87.6218 133.421C86.8992 132.615 85.8902 132.123 84.8096 132.048C84.3169 132.065 83.8376 132.213 83.421 132.476C83.0044 132.739 82.6656 133.108 82.4394 133.546V126.299C81.2604 126.526 80.0602 126.623 78.86 126.589V127.105H80.295V139.713ZM86.293 138.2C86.293 139.246 85.906 140.116 84.7774 140.116C84.1567 140.084 83.5711 139.819 83.1377 139.374C82.7042 138.929 82.4549 138.337 82.4394 137.717V134.85C82.4692 134.23 82.7249 133.642 83.1585 133.197C83.5921 132.752 84.1736 132.481 84.7935 132.435C85.8415 132.435 86.293 133.337 86.293 134.335V138.2ZM91.5976 135.269C91.5976 133.981 91.4202 132.499 93.081 132.499C94.7417 132.499 94.4998 133.9 94.4998 135.269H91.5976ZM96.2573 135.784C96.5636 135.784 96.7571 135.784 96.7571 135.414C96.7533 134.957 96.657 134.505 96.4742 134.085C96.2913 133.666 96.0255 133.288 95.6928 132.974C95.36 132.659 94.9672 132.415 94.5378 132.256C94.1084 132.097 93.6513 132.027 93.1938 132.048C92.1118 132.114 91.0971 132.595 90.3612 133.39C89.6253 134.185 89.2249 135.233 89.2436 136.316C89.206 137.363 89.5709 138.385 90.2633 139.172C90.9558 139.96 91.9234 140.453 92.9681 140.551C93.8411 140.614 94.7071 140.356 95.4023 139.825C96.0975 139.294 96.5738 138.526 96.741 137.668H96.2412C96.0967 138.332 95.7374 138.93 95.2186 139.37C94.6999 139.809 94.0506 140.066 93.3712 140.1C91.7588 140.1 91.5976 138.763 91.5976 137.33V135.72L96.2573 135.784ZM100.482 132.048C99.2724 132.048 98.0631 132.161 97.0312 132.048V132.547H98.3533V139.617H97.1763V140.116H102.287V139.617H100.482V137.813C100.482 135.14 100.965 134.045 101.723 133.272C101.814 133.135 101.936 133.022 102.079 132.941C102.221 132.86 102.381 132.813 102.545 132.805C102.771 132.805 102.755 132.918 102.691 133.256C102.684 133.353 102.684 133.449 102.691 133.546C102.703 133.797 102.809 134.034 102.988 134.21C103.167 134.386 103.407 134.488 103.658 134.496C103.818 134.518 103.98 134.504 104.134 134.455C104.288 134.407 104.429 134.325 104.548 134.216C104.666 134.107 104.759 133.973 104.82 133.823C104.881 133.674 104.908 133.513 104.899 133.353C104.89 133.156 104.84 132.964 104.752 132.789C104.664 132.613 104.54 132.458 104.388 132.334C104.236 132.209 104.059 132.118 103.87 132.066C103.68 132.014 103.481 132.003 103.287 132.032C101.836 132.032 101.127 133.208 100.498 134.335L100.482 132.048ZM109.027 136.332C109.027 137.438 109.467 138.499 110.25 139.281C111.033 140.063 112.096 140.503 113.203 140.503C114.311 140.503 115.373 140.063 116.156 139.281C116.939 138.499 117.379 137.438 117.379 136.332C117.379 135.226 116.939 134.165 116.156 133.383C115.373 132.6 114.311 132.161 113.203 132.161C112.096 132.161 111.033 132.6 110.25 133.383C109.467 134.165 109.027 135.226 109.027 136.332ZM115.009 136.332C115.009 138.973 115.009 140.116 113.203 140.116C111.397 140.116 111.381 138.973 111.381 136.332C111.381 134.013 111.252 132.435 113.203 132.435C115.154 132.435 115.009 134.045 115.009 136.332ZM121.152 128.956C121.152 128.264 121.668 126.702 122.603 126.702C123.135 126.702 123.296 127.105 123.135 127.217C122.982 127.298 122.853 127.418 122.763 127.565C122.672 127.713 122.622 127.882 122.619 128.055C122.617 128.176 122.64 128.297 122.686 128.41C122.733 128.523 122.802 128.625 122.89 128.709C122.978 128.794 123.082 128.859 123.196 128.902C123.311 128.945 123.433 128.963 123.554 128.956C123.695 128.963 123.835 128.941 123.966 128.891C124.097 128.841 124.216 128.764 124.316 128.666C124.416 128.568 124.495 128.45 124.547 128.319C124.599 128.189 124.623 128.05 124.619 127.91C124.597 127.671 124.527 127.44 124.414 127.229C124.301 127.018 124.146 126.832 123.96 126.682C123.773 126.532 123.559 126.421 123.328 126.355C123.098 126.289 122.857 126.27 122.619 126.299C122.271 126.298 121.926 126.364 121.603 126.493C119.378 127.346 119.008 130.1 119.008 132.145H117.395V132.644H119.008V139.713H117.395V140.213H122.861V139.713H121.152V132.644H123.038V132.145H121.152V128.956ZM133.906 127.105H135.824V126.589H129.23V127.105H131.358V139.649C131.358 140.567 131.116 141.485 130.052 141.485C129.794 141.485 129.004 141.485 128.972 141.05C128.98 140.856 129.06 140.672 129.198 140.535C129.4 140.331 129.525 140.064 129.552 139.778C129.559 139.623 129.534 139.469 129.478 139.324C129.422 139.179 129.337 139.048 129.228 138.938C129.119 138.827 128.989 138.741 128.845 138.683C128.701 138.625 128.546 138.598 128.391 138.602C128.224 138.618 128.061 138.668 127.913 138.747C127.764 138.826 127.633 138.934 127.526 139.064C127.42 139.195 127.34 139.345 127.292 139.506C127.244 139.667 127.229 139.836 127.247 140.003C127.261 140.333 127.358 140.654 127.53 140.935C127.702 141.217 127.943 141.45 128.23 141.614C128.776 141.918 129.396 142.063 130.02 142.032C130.78 142.025 131.521 141.795 132.151 141.372C132.782 140.948 133.274 140.349 133.567 139.649C133.918 138.31 134.033 136.921 133.906 135.543V127.105ZM141.419 129.907L143.273 135.591H139.404L141.419 129.907ZM139.984 140.213V139.713H137.953L139.194 136.106H143.499L144.708 139.713H142.628V140.213H148.933V139.713H147.32L142.774 126.299H142.096L137.259 139.713H135.647V140.213H139.984ZM163.911 127.105L162.589 130.615L161.235 127.105H163.911ZM152.238 127.105H153.754L158.591 140.535H159.22L161.428 134.271L163.67 140.535H164.282L168.958 127.105H170.458V126.589H166.765V127.105H168.378L164.863 136.96L162.847 131.613L164.46 127.105H165.782V126.589H152.238V127.105ZM156.253 127.105H158.849L161.074 133.369L159.832 136.96L156.253 127.105ZM169.039 136.332C169.003 136.9 169.085 137.47 169.278 138.006C169.472 138.541 169.773 139.032 170.163 139.447C170.554 139.862 171.025 140.193 171.549 140.419C172.072 140.645 172.636 140.762 173.207 140.762C173.777 140.762 174.341 140.645 174.865 140.419C175.388 140.193 175.859 139.862 176.25 139.447C176.64 139.032 176.942 138.541 177.135 138.006C177.328 137.47 177.41 136.9 177.375 136.332C177.41 135.763 177.328 135.194 177.135 134.658C176.942 134.122 176.64 133.632 176.25 133.217C175.859 132.802 175.388 132.471 174.865 132.245C174.341 132.019 173.777 131.902 173.207 131.902C172.636 131.902 172.072 132.019 171.549 132.245C171.025 132.471 170.554 132.802 170.163 133.217C169.773 133.632 169.472 134.122 169.278 134.658C169.085 135.194 169.003 135.763 169.039 136.332ZM175.021 136.332C175.021 138.973 175.021 140.116 173.215 140.116C171.409 140.116 171.409 138.973 171.409 136.332C171.409 134.013 171.264 132.435 173.215 132.435C175.166 132.435 175.021 134.045 175.021 136.332ZM181.244 132.048C180.019 132.048 178.81 132.161 177.778 132.048V132.547H179.084V139.617H177.923V140.116H183.034V139.617H181.244V137.813C181.244 135.14 181.712 134.045 182.47 133.272C182.565 133.136 182.69 133.023 182.835 132.942C182.98 132.861 183.142 132.814 183.308 132.805C183.518 132.805 183.502 132.918 183.453 133.256C183.408 133.398 183.396 133.549 183.42 133.697C183.444 133.844 183.502 133.984 183.59 134.105C183.678 134.225 183.793 134.324 183.926 134.392C184.059 134.46 184.207 134.496 184.356 134.496C185.082 134.496 185.614 134.142 185.614 133.353C185.614 132.564 184.791 132.032 184.001 132.032C182.55 132.032 181.857 133.208 181.228 134.335L181.244 132.048Z" fill="black"/>
<path fill-rule="evenodd" clip-rule="evenodd" d="M190.257 140.213V139.713H188.806V126.299C187.627 126.525 186.427 126.622 185.227 126.589V127.104H186.662V139.713H185.162V140.213H190.257ZM196.578 140.39C197.763 140.226 198.962 140.172 200.157 140.229V139.713H198.722V126.299C197.543 126.525 196.343 126.622 195.143 126.589V127.104H196.578V133.755C196.43 133.231 196.105 132.775 195.658 132.464C195.211 132.152 194.67 132.006 194.127 132.048C193.08 132.182 192.117 132.692 191.419 133.483C190.722 134.275 190.337 135.293 190.338 136.348C190.315 136.937 190.408 137.524 190.613 138.077C190.818 138.63 191.13 139.137 191.531 139.569C191.827 139.896 192.187 140.16 192.589 140.342C192.992 140.525 193.427 140.624 193.869 140.631C194.435 140.659 194.996 140.509 195.472 140.203C195.949 139.897 196.319 139.45 196.529 138.924L196.578 140.39ZM192.756 134.657C192.756 133.498 192.918 132.435 194.224 132.435C195.53 132.435 196.578 134.126 196.578 135.414V137.572C196.547 138.208 196.289 138.812 195.852 139.276C195.414 139.739 194.826 140.032 194.191 140.1C193.095 140.1 192.756 139.246 192.756 138.264V134.657ZM199.69 132.66H200.673L203.446 140.535H204.059L206.058 135.221L208.251 140.535H208.896L211.46 132.66H212.653V132.145H209.493V132.66H210.831L209.202 137.491L207.106 132.145H206.542L204.559 137.652L202.85 132.66H204.188V132.145H199.69V132.66Z" fill="black"/>
<path fill-rule="evenodd" clip-rule="evenodd" d="M217.167 140.213V139.713H215.684V132.048C214.475 132.048 213.266 132.161 212.089 132.048V132.564H213.54V139.617H212.089V140.116L217.167 140.213ZM215.636 128.312C215.636 128.013 215.517 127.727 215.305 127.515C215.093 127.304 214.806 127.185 214.507 127.185C214.208 127.185 213.921 127.304 213.709 127.515C213.497 127.727 213.378 128.013 213.378 128.312C213.373 128.614 213.48 128.907 213.68 129.134C213.88 129.36 214.158 129.504 214.459 129.536C214.617 129.536 214.774 129.504 214.921 129.442C215.067 129.38 215.199 129.289 215.309 129.175C215.418 129.061 215.504 128.925 215.56 128.777C215.617 128.629 215.642 128.471 215.636 128.312ZM223.423 140.39C224.604 140.227 225.796 140.173 226.987 140.229V139.713H225.568V126.299C224.389 126.525 223.188 126.622 221.988 126.589V127.104H223.423V133.755C223.276 133.231 222.951 132.775 222.504 132.464C222.057 132.152 221.516 132.006 220.973 132.048C219.924 132.181 218.959 132.691 218.259 133.482C217.559 134.273 217.171 135.292 217.167 136.348C217.147 136.938 217.244 137.526 217.451 138.078C217.659 138.631 217.973 139.137 218.377 139.569C218.673 139.896 219.033 140.16 219.435 140.342C219.837 140.525 220.273 140.624 220.715 140.631C221.28 140.654 221.838 140.502 222.314 140.197C222.79 139.891 223.16 139.447 223.375 138.924L223.423 140.39ZM219.602 134.657C219.602 133.498 219.747 132.435 221.069 132.435C222.391 132.435 223.423 134.126 223.423 135.414V137.572C223.392 138.208 223.135 138.812 222.698 139.276C222.26 139.739 221.671 140.032 221.037 140.1C219.941 140.1 219.602 139.246 219.602 138.264V134.657ZM229.437 135.269C229.437 133.981 229.26 132.499 230.905 132.499C232.549 132.499 232.34 133.9 232.34 135.269H229.437ZM234.081 135.784C234.403 135.784 234.581 135.784 234.581 135.414C234.571 134.962 234.47 134.517 234.285 134.104C234.101 133.692 233.835 133.32 233.505 133.011C233.175 132.702 232.786 132.462 232.362 132.305C231.937 132.148 231.486 132.077 231.034 132.097C229.949 132.159 228.93 132.638 228.191 133.433C227.451 134.229 227.049 135.279 227.067 136.364C227.03 137.414 227.397 138.438 228.093 139.226C228.789 140.014 229.76 140.505 230.808 140.599C231.685 140.675 232.558 140.424 233.261 139.895C233.963 139.366 234.445 138.595 234.613 137.733H234.113C233.957 138.391 233.589 138.98 233.064 139.408C232.539 139.836 231.888 140.079 231.211 140.1C229.518 140.1 229.437 138.763 229.437 137.33V135.72L234.081 135.784ZM6.25592 139.214L5.70772 140.197V137.073H7.44906L6.25592 139.214ZM7.44906 137.073V133.965H9.20652L7.44906 137.073ZM10.9479 130.905V131.034L9.33551 133.981V130.905H10.9479ZM12.5602 133.691L16.2686 140.132L11.5928 140.229H0.467583L3.93413 134.077L7.35232 128.006L8.31973 126.396L12.5602 133.691Z" fill="black"/>
</g>
<defs>
<clipPath id="clip0_41_48">
<rect width="235" height="142" fill="white"/>
</clipPath>
</defs>
</svg>
